<svg xmlns="http://www.w3.org/2000/svg" xmlns:xlink="http://www.w3.org/1999/xlink" width="24" height="24" preserveAspectRatio="xMidYMid meet" viewBox="0 0 32 32" style="-ms-transform: rotate(360deg); -webkit-transform: rotate(360deg); transform: rotate(360deg);"><path d="M12 6h-2a2 2 0 0 0-2 2v16a2 2 0 0 0 2 2h2a2 2 0 0 0 2-2V8a2 2 0 0 0-2-2z" fill="#fff"/><path d="M22 6h-2a2 2 0 0 0-2 2v16a2 2 0 0 0 2 2h2a2 2 0 0 0 2-2V8a2 2 0 0 0-2-2z" fill="#fff"/><rect x="0" y="0" width="32" height="32" fill="rgba(0, 0, 0, 0)" /></svg>