<svg xmlns="http://www.w3.org/2000/svg" xmlns:xlink="http://www.w3.org/1999/xlink" width="24" height="24" preserveAspectRatio="xMidYMid meet" viewBox="0 0 24 24" style="-ms-transform: rotate(360deg); -webkit-transform: rotate(360deg); transform: rotate(360deg);"><path fill="#fff" d="M18.45 6.2a2.1 2.1 0 0 0-2.21.26l-4.74 3.92V7.79a1.76 1.76 0 0 0-1.05-1.59a2.1 2.1 0 0 0-2.21.26l-5.1 4.21a1.7 1.7 0 0 0 0 2.66l5.1 4.21a2.06 2.06 0 0 0 1.3.46a2.23 2.23 0 0 0 .91-.2a1.76 1.76 0 0 0 1.05-1.59v-2.59l4.74 3.92a2.06 2.06 0 0 0 1.3.46a2.23 2.23 0 0 0 .91-.2a1.76 1.76 0 0 0 1.05-1.59V7.79a1.76 1.76 0 0 0-1.05-1.59zM9.5 16l-4.82-4L9.5 8.09zm8 0l-4.82-4l4.82-3.91z"/><rect x="0" y="0" width="24" height="24" fill="rgba(0, 0, 0, 0)" /></svg>